<svg xmlns="http://www.w3.org/2000/svg" viewBox="0 0 340.95 84.21"><defs><style>.cls-1{fill:#f7931e;}</style></defs><g id="Calque_2" data-name="Calque 2"><g id="Calque_1-2" data-name="Calque 1"><g id="_8rGDri" data-name="8rGDri"><path class="cls-1" d="M87.09,42.21v.85l.08.08a.2.2,0,0,0,.11,0H95v.93h5l0,1h3.79l0,.94h6v-.87h3.06l.11-1h5l.08-1h13.85l.07.9h5v1h2.85V46a6.77,6.77,0,0,0,1.55.07c.51,0,1,0,1.58,0V47l1,.09V48.2h1.92v2.85h-2.79L143,52h-.88v3.13h-1v1.93h-1.18v3.07l-1,.11c0,.94,0,1.89,0,2.85-.29,0-.59,0-.89,0V64h.87c0-.33,0-.63,0-.92.3,0,.58,0,.92,0l.09-.93h1.14v-1H143v-.91l1-.11V59.06l1-.08,0-.91h.91l0-.93H147l.1-1H148l0-1,.94-.05v-.93h1.89V53.06l1-.08,0-.91h1.15l.05-.93h1.83l.11-1h.88l.07-1,.92-.05v-.93h.93V47.05l1.21-.06.05-.92H161l.05-.93h2.79l.11-1h4.95l.08-1h14.11v.91h4.77V45a6.77,6.77,0,0,0,1.55.07H191V46h2.89l0,1h1.17v1.17h1.86c0,.34.07.63.11,1h.86v1l-.89,0v.93h-1.89V52l-1.22.06c0,.29,0,.56,0,.92h-.92v2.13H192v1.93h-1v3.12l-.93.06V63l-1,.11c0,.62,0,1.24,0,1.89-.37,0-.75,0-1.13,0v1.14h1.11c0-.41,0-.79,0-1.16.3,0,.58,0,.92,0l.09-.93H191V62.15h1.89v-.91l1-.11v-.88l1.22-.06V59h1V58.1H197l.09-1H198v-1l.93,0v-.87l1-.11v-.89H202V53h1V52.1h.91l.09-1h1.87v-1H207v-.93H209v-1h1.93V47H214V46.1H221l.1.88h.89v1.2l.94.06v2.83H221v-.88h-6l-.05.89h-3.07l0,.93H210l-.11,1h-1.85v1.2l-1,.06v.93H205v.91l-1,.09-.05.91h-1.87l0,.93h-.88L201,59h-1.13v1.2l-.94.06v.87l-1,.11v.86l-1,.09-.05.91h-.91l0,.93h-.88l-.1,1h-1.14V66.2H192v.91l-1,.11V69l-1,.09,0,.91H187.9v2.13H187l-.11,1H186l-.07,1-.89,0V75l-1,.11V76l-1,.09-.05.91H181.9v2.13H181l-.11,1H180V82h-4.06V79.18h1.12V77.07l1-.09,0-.91H179V73.22h1c0-.7,0-1.37,0-2V69.13h.93V65l1-.05V62.14h1.22c0-1.07,0-2.1,0-3.14.29,0,.59,0,.9,0v-.9h-.88c0,.33,0,.63,0,.92h-1.18l-.06,1.18H181v1l-.94,0v.88l-1,.11v.87l-1,.07,0,.92h-.93V65h-1.16l-.07,1.22-.91,0v.92l-.94,0V69l-1,.11V70h-1.93v2.14H170l-.11,1H169l-.09,1H167v1l-.93,0V76l-1,.11V77H163.9v1.18H162l-.11,1H160.1l-.09,1H157.9v1H156V82l-1.43,0c-.47,0-1,0-1.46,0V83H142.07l0-.86H140l-.11-1H139l-.09-1-.87,0V71l.86,0V69.13l-.88,0V70l-1,0v2.1h-.91l-.11,1h-.86l-.09,1H133.9v1l-.93,0V76l-1,.1V77h-1v2.14h-.91l-.11,1h-.88V82h-4.06V79.18h.86V77.07l1-.09v-.9h1v-2.9h1.22v-5H130V64.08l.94,0v-2.8l1-.1c0-.7,0-1.41,0-2.13.29,0,.59,0,.9,0v-.9H132c0,.33,0,.63,0,.92h-.93L131,60.19h-.91v1l-.94,0v.9l-1.21.08v.88l-1,.07,0,.89H126l-.11,1h-.87L125,66.19l-.91,0v.92l-.94,0v.9l-1.21.08v.88l-1,.07,0,.92H120v2.14h-.91l-.09,1H117.1v1h-1.17V75l-1,.1V76l-1,0,0,.9h-.88L113,78.18h-1.84l-.08,1h-2.11v1h-1.89v.93h-1.94v1H102l0,.94H90l-.1-.88h-.87l-.07-1-.92-.05v-.93h-.93V71.06L88,71V69.15h-.9l0,.86H86c-.16.73,0,1.44-.11,2.17H85l-.07,1-.92,0v.93h-.93V76l-1,.09L82,77H81.1v2.13H80l-.1,1H79l0,1H76.09V80.2l-1-.11v-4L76,76V73.19h1l0-.93h.91V70.08h1V68.16l.94,0V66.26L79,66.21v.92l-1,.08,0,.87H76.11l-.1,1h-.87l-.09,1H73.91v1L73,71v1.12l-1,.11v.87l-1,.07,0,.92h-.93v.93H67.94l-.09,1-.91,0V77L66,77v1.14H64.08v1l-1,.07,0,.89H61l-.11,1H58.1L58,82l-.91,0V83H53.05v1c-.11.07-.17.15-.23.15H43V83H41L41,82.1h-.87l-.11-1h-.88v-5H36.94V77H36v1.17H34.07v1H31.91l0,.94H30l-.11,1H27.13l-.07,1H24.94v1H19v1.14h-8.9V83H5l0-.93H4.11l-.11-1H3.13l-.07-1H1.93v-.91l-1-.11V77.07L0,77V72.23H.92V69.14h.9l.11-1H3.06l0-1,.9,0v-11l1-.11v-3l1-.08V51.11h1V49.22h.91l.1-1H9.06V46.08L10,46v-.87l1-.11v-.87l1-.08.05-.88h.88l.1-1h.88L13.92,41h1.15v-1H17v-.93h1.93v-1h2.17l.05-.94h1.83l.11-1h1.84L25,35H28v-1h3.81v-1c2-.06,4,0,6,0v-6h1.22v-4c.07-.07.1-.12.13-.12H40A5.79,5.79,0,0,0,40,21.64c0-.48,0-.95,0-1.47H41l.08-1,.91-.05V17l.93,0v-.88l1-.11v-.89h1.21v-1.9H46L46.08,12H47L47,11h1.87v-1h.93V9.13l1.22-.06V8.16H53L53,7.22h1.85L55,6H57l.08-1H59v-1h4.06V3.13h4.81v-1h18l0-.93h5c0,.41,0,.87,0,1.34V4H94V5.94L95,6V8.11H93.13V7.23H90V9.08H89V11h-.91l-.11,1h-.89v1.22H85.93v.91l-1,.11V16l-1,.09,0,.91H83v3.09h.88l.1-.89h.89l0-1,.94,0V17H88V16.1L89,16l0-.91H90v-.93h1.87l.09-1h1.15V12L94,12v-.87L95,11v-.89H96.9l0-1h.93V8.17H100l.09-1,.91,0V6l.93,0v-.9h1.93v-1H106l0-.94h1.83l.11-1h1.83l.08-1H113V0h19.89V1.07a1.6,1.6,0,0,0,.35.1c1.88,0,3.75,0,5.67,0v.94H142l0,.94h3.75l.11,1h4L150,5h3.07V6L154,6V7.12l-.88.09v.9h-5l-.05.94h-.88L147,10H145l-.08,1L144,11V12h-.93v1.17h-1.94v1h-1.2l0,.94H139l-.11,1H138l-.07,1-.89.05v1.11l-1,.11v.86l-1,.09,0,.91h-1.16l0,.93H133l-.11,1H132l-.07,1-.89.05v1.11l-1,.11v.86l-1,.09v1.87h-1.2l0,.93H127l-.1,1H126v1.2l-.94.06v1.83l-1,.11V34h2.81l0,.93h3l.09-.86h1.82l.09-1h.91v-1H135v-.91l1-.11v-.87l1-.08V29h1v-1.9h.91l.09-1,.91-.05v-.92H141v-.91l1-.11V23.05l1-.07.05-.88h.87l.11-1h.89V19.2l1-.05v-.93H147V17.07l1-.1v-.89l1,0,.05-.9h.87l.11-1h.89V12l1-.05V11H154v-.91l1-.09V9.11h1l.05-.93h.87l.11-1h.89V6H160V5.08L161,5V4.09h1.93l0-1h2.11l.05-.93h2.79l.11-1h4l.07.89h1.84V1.37a.89.89,0,0,1,.12-.15.21.21,0,0,1,.1,0h6.75V0h7V1.16H196l0,.93h2.8l.11,1h4l0,1h2.82V5c.73,0,1.43,0,2.17,0V4.08h1.93c0-.35,0-.62.05-1h1.87l0-.93H214l.1-1h3.77V0H234V1.17h6V2.1h3.13l.05,1h4.77V4h5l.08-.89H256v-1h2.85V1.36c.07-.09.09-.12.13-.14a.15.15,0,0,1,.1,0h5.78V0h8.18V1.12h4.76l.1,1h4l.09,1h3.07V4H287V5h1.93v1l1,.07V7.16h1.19v.93h-1.12l-.09,1h-.91v-.9H288V9l-1,.11V10l-1,.07v1.85h-.9c-.17.72,0,1.44-.12,2.17h-1.12V17l-1,.06v2.11l-1,0c0,1,0,1.91,0,2.88-.29,0-.59,0-.89,0V23h.87c0-.33,0-.63,0-.92.3,0,.58,0,.92,0l.09-.93h.9v-1H285v-.91l1-.11v-.87l1-.08V17h1V16.1h.91l.1-1h.89v-1H292V12h1.93v-1l1-.08.05-.91h.91l0-.93H298l.11-1H299V6l.94,0V5.08l1-.11V4.09h2.17l.05-1H305l0-.93h1.83l.11-1h5.93V0h8.17V1.16H328v.93a15.38,15.38,0,0,0,1.91,0c.64,0,1.27,0,1.94,0v.94H335L335,4h2.8l.1,1h3V8.11h-3v1l-.94,0V10l-1,.11V11l-1,.08,0,.91h-.93v1.17h-.9l-.1,1h-1.14v1l-.94.06V16l-1,.11v2.07l-1,.08,0,.91h-.91l0,.93h-.88l-.1,1h-1.14V23L325,23v1.11l-1,.11v.86l-1,.09,0,.91h-.91l0,.93h-.88l-.1,1h-1.14l0,1-.93.05v1.17h-1.89v.91l-1,.09c0,.28,0,.55-.05.91h-.91l0,.93H314l-.11,1H313c0,.34-.05.64-.07,1H311v1.21h-1.89v.93l-1.22.06,0,.91H306l0,.94h-2.8L303,40h-3l-.08,1h-5v1.2h-6v-1c-.07-.06-.1-.1-.13-.1h-2.76v-1l-1-.07-.05-.88H284l-.11-1H283V28.08h.85V26.16H283V27l-1,.11V28l-1,.08,0,.91h-.93v1.17h-.91l-.09,1h-1.14v1l-.94,0V34l-1,.11V35l-1,.08V36.2h-1v1.89h-.9l-.1,1h-1.14v1h-2.86V36.27l.88-.1V34.11l1-.09.05-.91h.93V30.26H273a1.6,1.6,0,0,0,.1-.35c0-1.55,0-3.11,0-4.7H274V21.12l.94-.05v-2.8l1-.1c0-.7,0-1.41,0-2.13.29,0,.59,0,.9,0v-.9H276c0,.33,0,.63,0,.92h-.92L275,17h-.9v1.2l-.94.06v.88l-1.21.09v.87l-1,.09-.05.91H270V23h-.93L269,24.18h-.88l-.07,1-.92.05v.93h-1.17V27l-1,.09V28h-1l-.06.94h-.88L263,30.18h-.87l-.09,1-.91.05v.92h-1.17V33l-1,.11V34H257L257,35h-.93v1.17H254l-.1,1H253l0,1h-2.85v1h-2.13V40h-6V41h-4.81l-.05-.86h-4l-.1-1h-.87l-.09-1h-.9V34.07h-1.18V31.18h1.16V27.09h1c0-.36,0-.66,0-1,.29,0,.59,0,.9,0v-.9h-.88c0,.33,0,.63,0,.92h-1v1h-1.15l-.09.94H229v2.16l-.94,0v.88l-1,.11v.87l-1,.08V34h-1v2.13h-1.15l-.09,1-.91,0v1.88h-3.81V32.19l.88-.1V30.25l1-.07V28.1h.91l.11-1h.86V24.25H222v.9l-.93,0v.88l-1,.1v.9l-1,0-.05.9H218l-.11,1H216c0,.41,0,.79-.06,1.21l-.92,0v.93h-.93v.91l-1,.09v.9h-1.2l0,.94H210l-.11,1H209v1.21h-1.9v.93l-1.2.09v.89H204l0,1h-1.88l0,.93h-3l-.11,1h-3.77v1.2H187.9V41H185v-1.9h-1.92l-.06-1H181.9v-4H180l-.09.88H179V36.2h-1.9v.9c-.72.17-1.44,0-2.17.12v.89H173L173,39h-1.83l-.1,1h-3l-.09,1H161V42.2h-3.1v.91l-1,.11v.87l-1,.07-.05.89h-2.79L153,46h-4.95l-.08-.89h-5v-1h-3.1v-.94H138v-1h-2.9V41.06H133l-.11-1h-1.82l-.09-1H129.1v-1h-1.17v.77a97.21,97.21,0,0,1-10.81.11v-.88h-1.2v-4.1h1.16V31.21H118V29l1-.05v-.93h.93V26.19l1-.09v-3H120v1.1h-.91l-.11,1h-.87l-.07,1-.92.05v.93h-1.17V28l-1,.09,0,.91H114v1.17h-.91l-.11,1h-.87l-.07,1-.92,0v.93H109V34l-1,.09,0,.91h-1.88v1.17H104l-.1,1H103l0,1h-1.86v.93H99.12v1H96l-.06,1h-5v1.21H87.09V41H83v-.93l-.91,0-.08-1h-.87l-.11-1H79.87V36.27h-1v.94H77v.93H75.07v1H73l-.08,1H72l-.11,1H70v1.18h-1v.91l-1.17.06v.92h-1c0,.36,0,.66,0,1-.29,0-.59,0-.89,0V46h.87c0-.33,0-.63,0-.92.32,0,.62,0,1,0v-1H71l.11-1H77v-.92Zm151-23h-1a8.2,8.2,0,0,1,0,1h-1.11v.9h1.11a7.24,7.24,0,0,1,0-.94h1c0-.36,0-.66,0-1H239v-.9h-.88C238.08,18.57,238.08,18.87,238.05,19.17ZM72.93,28.05H72v1H70v1.18l-1,0v.9l-1.18.08v.91h-1a8.2,8.2,0,0,1,0,1H66V34h.87a7.24,7.24,0,0,1,0-.94h1v-1h2.18V31.2l1-.05v-.9l1-.09V29h1v-1h1v-1h2.16v-.93H77l0-.93,1,0v-.9l1-.09V23.05l.87-.09V21.12h-.9l0,1H78l-.09,1H77v1.17h-.93l0,.92-1,.06v.89l-1.17.07v.92h-1ZM89,58h.88v-.9H89c0,.33,0,.63,0,.93h-1v1H85.87v1.21h-.94v1H84a8.2,8.2,0,0,1,0,1h-.87V64h.87c0-.65,0-1.27,0-1.9h1v-1H87.1v-.92l1-.09V59h1C89,58.65,89,58.35,89,58Zm42.89-43.85h-.87v.9h.87a4.57,4.57,0,0,1,.07-1h.88v-.9H132A4.57,4.57,0,0,1,131.93,14.17ZM233,15.06h.88v-.9H233c0,.33,0,.63,0,.93h-1v1h-1v1h-1.2v1.24H228l-.11,1H227v.92h-.93V22H227l.06-.93h1v-.9l1-.09v-.86l.93-.11v-.9h1.2V17h1v-1h1C233,15.69,233,15.39,233,15.06ZM126.93,18.21h1c0-.44,0-.82,0-1.23H129v-.9h-1.12c0,.33,0,.63,0,.93h-1v1.2h-1a8.2,8.2,0,0,1,0,1H125l-.09,1h-.85v.9h1.83c0-.65,0-1.27,0-1.9h1Zm-81.84,43h-1.2v1h-2V64.1H41v2.06h1V65.05L43,65V64.1l.93-.1V62.13h1.2v-1h1c0-.36,0-.66,0-1H47V59h-.88c0,.41,0,.79,0,1.17h-1Zm252-47h-1.11v.9h1.11a4.57,4.57,0,0,1,.07-1H298v-.9h-.88A4.57,4.57,0,0,1,297.05,14.17Zm-227,22H67.89a8.2,8.2,0,0,1,0,1H67v.9h.87a7.24,7.24,0,0,1,0-.94h2.16c0-.35,0-.65,0-1H71V35h-.88C70.08,35.45,70.08,35.83,70.05,36.21ZM150,59H154V58h-.91l-.05-.89H150.9V58l-.93.09a7.24,7.24,0,0,1,0,.94h-.87v1.14h.87C149.93,59.78,149.93,59.4,150,59ZM33.09,64H35v-.93h.93l.06-1h1.87l0-.91,1.21-.06V59.06L40,59V57.12h-.93v1H37.92l-.08,1H37l-.08,1.21H36l-.1,1H35L35,62.1l-1,.08v.87l-.93.1v.95H30.92V65H30v1.13h1.92V65L33.09,65ZM95,61.13h1.87l.11-1h2.06l.09-1.2h2.79V55.26s-.05-.06,0,0h-.84l-.1,1h-.88l0,.93H97.91l0,1h-1V59l-1,.08v1.11l-.92.1a7.08,7.08,0,0,1,0,.94H94.1v.9H95A8.2,8.2,0,0,1,95,61.13Zm-41-19h6L60,41h1.83L62,40H64v-.93H59l-.05-.9H55.91l0,.88-1,.08V41l-.92.1a11.34,11.34,0,0,1,0,1.18h-.87v.9h.87A8,8,0,0,1,54,42.18ZM43.89,56.09h2.16v-.93H47l.05-.92,1-.07V53h1.93V51.08h2.14v-.93l.9,0,.09-1h.86l.11-1H55.9V47h1.22V46.1L58,46v-.92H54v-.91H53l-.08,1H51.13l-.11,1H49.91l0,.9-1,0v1.13l-1,.1v.89l-.93,0v1.87l-.91,0-.08,1h-.87l-.11,1H43.87v1.18H43v.9l.93.09a7.24,7.24,0,0,1,0,.94H43v.9h.87A8.2,8.2,0,0,1,43.89,56.09Zm-16.8,20h-5L22,77H15.11l0-.94H11l0-1H9.05v-.89l-1.21-.09v-.92H6V71.05H4v2.16h-.9v2.85H4l.06,1H5v1.14l1,.09v.91H7.9v1H10l.06.91H17l.09-1h2.79l.1-1h3l.06-.94H25V77h2.13c0-.37,0-.65,0-1H29v-.9H27.12C27.12,75.44,27.12,75.75,27.09,76.09ZM84,31.22h3.08l.1,1H90.9l.06.94h2.16V34l1,.11V36.2l.93,0v.9h.91l.08-1h1.84L97.94,35h1.13l0-.94H101l0-.9,1-.09v-.91h1.89v-1h1.16l.07-1H106l.07-1.21h.9l0-.93h.91l0-.91,1-.08v-.87l1-.11v-.91h2.14V23h.9l.09-1h1.87v-.93h.93l.06-1h1.13V18.18h-2.17V17h-12v1.19h-2.86l0,1H97l-.09,1H95v.93h-.93l0,1H91.85V23l-1,.11v1.14H89v.93l-.91.05-.08,1h-.87l-.11,1H85.91l0,.9-1,0v2.1l-.93.09a7.24,7.24,0,0,1,0,.94h-.87v.9h.87A6.13,6.13,0,0,1,84,31.22ZM177.08,28H179v-.93h.93l.05-.91,1-.08v-.87l1-.11V24.2h1.18V23h.9l.1-1H185l0-.93h.91l.05-.91,1-.09v-.86l1-.11V18.2h1.18V17h.9l.1-1H191l0-.93H192l0-.91,1-.09v-.86l1-.11V12h1.13l.07-1H196l.11-1H198l0-.94h1v-1h2.18V7.17H202V6h-5.92l-.07-.9H180.93c0,.74,0,1.44,0,2.08H178V6h-4.09V7.21H172v.93h-2.13v.93l-1,0V11h-2.85c0-1.2,0-2.35,0-3.51a1,1,0,0,0-.07-.25h-.86l-.05.94h-1.2v.9l-1,.09V10l-.93,0V11L161,11,161,12h-.88L160,13.22h-.92v1.9h-1.21V16l-1,.11V17L156,17v1.15l-.91,0-.09,1h-.86l-.11,1h-.91v1.9h-1.22V23l-1,.11v1.11l-.93,0v.91l-.91.05-.09,1h-.86l-.1,1h-.88l-.05.94h-1.21V29l-1,.11v1.15H143v1h-.91l-.09,1h-.91v.93h-1.17l0,1h-1.93V35H136v1.22h-2.1v1h3l.1,1h4l0,.93h4.75l0,.89h5.94v-.86l-1-.11V35L150,35V31.14h.91c0-.71,0-1.39,0-2.06s0-1.33,0-2h1V25.16h1.21V23.05l1-.09V22.1l1-.11v-.87l.89-.05.07-1h.87l.11-1h.88l0-.93h1.2V17h1.94V16.1L162,16v-.8s.06,0,.13-.13h2.95l.07-1H166l.11-1h3.79V12h12v1.12l1.22.06v.88l.87.09V17h-3l-.08-1H180l-.1-.88H174l-.05.93h-2.88v1h-3s-.06.06-.13.13v1H167v1h-1.87l-.08,1H163l-.11,1H162l-.05.94H160V23l-1,.1v1.15h-1.17v.93l-1,.05v1.93H156l-.11,1H155L155,29l-1,.06v3l-.89.1V35l.93,0V37.2h1.87l.09,1h4v.88H161l.06-.94h2.88v-.93c.74,0,1.44,0,2.17,0v-1H168V35l.9,0,.09-1h2.07l.1-1H173l.05-.89,1-.07v-.87l1-.11v-.88l.94,0V29h1.17ZM329,5.06h-13.9V6h.9V9h-3.12V8.13h-6.74a.15.15,0,0,0-.1,0s-.06.06-.13.14v.79H304v1h-2.1l-.09,1H301v2.06h1V12h12v1.14c.74,0,1.44,0,2.17,0v1.88l.86,0v3.06h-1.83L315,17H313.9l0-.93H313l-.05-.89h-7v.9c-.52,0-1,0-1.47,0a5.71,5.71,0,0,0-1.42.07V17H300.9v1.21h-1.85l-.11,1H297.1l0,.93h-1.15l-.05,1h-1.93V22l-1,.11V23L292,23v1.21h-.89l-.11,1h-1.11l-.05.93H289l-.05.91-1,.09V28l-1,.11v2.07l-.86,0v6H287c0,.34.07.63.11,1H288l0,.93h1.92V39H294v-.9h3.09v-1H299l.08-1h1.84c0-.42.06-.8.09-1.21h.89l0-.94h1.2v-1h1.94v-.93H306v-1h1.87l.08-1h1.12c0-.42.06-.8.09-1.21H310l.05-.9,1,0v-.9l1-.1v-.88l.93,0V25.2l.91-.05.09-1h1.15V23H316l.05-.92,1-.07v-.87l1-.11v-.88l.93,0v-.92l.91,0,.09-1h1.15V17H322l.06-1H324v-.89l1-.11v-.88l.94,0V12H328l.09-1H329l.1-1h.87l.06-.93h1.92v-.9l1.21-.09V7.19l.86,0V6h-5Zm-49,0H261.13L261,6H258V7.2h-2.89v.9l-1.22.08v.9l-.93,0v1H251l-.08,1h-.87c-.13.73.06,1.45-.11,2.17h-.86v2.86H257V17l1,.09v1.11l.87.08V23H257V21.06h-.89l-.11-1h-.87l-.05-.86h-7.2v.94H245v.93h-1.9v1h-1.15l-.08,1H240l-.08,1.21H239l-.05.93h-.91l0,.91-1,.09v.91h-1.18V28l-1,0v2.17h-1c0,.95,0,1.86,0,2.76,0,0,0,.06-.13.13H233v.93h1v2.11l1,.09v.91h2.13v.92h4.76l.07-1h3l.1-1h1.87V35h.92l.06-1h2.16v-.93H252v-.93l.93,0,0-1h.9c0-.34.06-.63.1-1h1.15V29H257l0-.91,1-.08v-.87l1-.11v-.87l.9-.05,0-1h1.14l.1-1h.91V23H263l0-.91,1-.09v-.91h1.9v-1h1.21V18.18H268l.07-1.21h.9l0-.93h.91l.06-1h1.92v-.89l1.21-.09V13.2l.94-.06v-1.2h.9l.1-1h.86l.1-1h1.83l.05-.88,1.21-.06v-1h1.93V7.16h1.82V5.94h-2.82Zm-162,62.13v-1H119V65l.92-.05.07-1h.87l.11-1h.88l0-.94h1.16l0-.9,1-.09v-.86l1-.11V59l.89,0,.07-1h.88l.1-1h.88l0-.93h1.15l.05-.91,1-.09v-.91H132V53l1-.06V52h.9l.1-1h2.1v-.93h1.89l.05-.92.9-.06v-.93h-4.7a1.6,1.6,0,0,1-.35-.1V47H118v1.19h-3.1l0,1h-1.85l-.1,1h-1.87v.93H109l0,.91-1,.08V53l-1,.11v1.11l-.93.05v1.87l-.88,0v1.93H111l.11,1H114v1.18h1v2.82l.89.08V65l-1,.11v2.06H113V63.06h-.89l-.1-1H109.9l0-.87h-3.8l0,.94h-4.09v1H100v.93H97.87V65L97,65l-.06,1.21H96l-.11,1H95l0,.9-1,0v.9l-1,.09v.91H91.87V71l-1,.05v2.17H90c0,1.7,0,3.35.05,5.05h.9l0,.93h.92l0,.89h7.21v-1h1.93V78.2h2.86V77h1.14l.09-1H107v-.93h.93l.06-1h1.92v-.9l1.21-.08v-.9l.93,0V71L113,71l.09-1h1.82l.11-1h.88l0-.94h1.2v-.93Zm-110.16,0V69.1H9.1V70l.91,0,.08,1H11l.09,1.21h.88l.06.94h3.12v.93h7.7a.19.19,0,0,0,.1,0l.13-.12v-.81H25.9v-1H29L29,71h1.84L31,70h.87v-.86H29.94v.94H28V71H23v-.91l-.89,0V65H23l.11-1h.87l0-.9,1,0v-.9l1-.1v-.91H27.1v-.92l.92-.05L28.08,59H29l.11-1h.87l0-.89,1-.07v-.87l1-.11v-.91h1.18v-.93l.91,0L34.09,53H36V51.08h.93l.05-.92.9-.06v-.88l-1-.11v-.88l-.93,0V47H34.08L34,46.1H25.93l-.1,1H24v1.12l-1,.08v.87l-1,.11v.87l-.93,0v.9H18c0-.94,0-1.85,0-2.76,0,0,0-.06.12-.13h.8V47h.93l.05-.92L21.12,46v-1h1.93v-.93H25v-.91H35l.1,1h1.86v.93h2.13l0,.91,1,.08V47l1-.06v-.88l.9,0,0-1h.9l.1-1h.87V42.2H41.94V41.05L41,41V40.1L40,40V38.16l-.94-.06V36.25H36l-.11,1H33.11l0,.93H30l0,1H28V40c-.73.13-1.45-.06-2.17.12V41h-1.9v1.22H22.09l-.11,1h-.87l-.05.93H19l-.05.91-1,.09V46l-1,.11V47L16,47v1.21h-.89l-.11,1H13.91l-.05.93h-1v.91l-1,.09V53H11v1.17l-1,.05v1.93H9.09v1.89H7.87V61.2H7v6ZM142,71v2.12l-.87.09v5l.89,0,.07,1H143l.1.88H150l0-.93h3.07l.06-1H155V77h1.89v-.93l1,0v-1h1.14l.09-1H161v-.93h.93l.05-.92,1-.07V71.06c.73-.12,1.45,0,2.17-.11v-.88l.94,0v-.92l.9,0,.09-1h.86l.11-1h.87l0-.89,1-.07V65.05l1.21-.08v-.9l.93,0v-.91l.91,0,.09-1h.86l.11-1h.87l0-.9,1,0V59l1.21-.07v-.9l.93,0v-.91l.91,0,.08-1h.87l.11-1h1.84l0-.94h1.2V53.05l1-.09v-.91H185v-1h1.87l.08-1H189l.11-1H190V48.2h-5V47.07H171.12v1.1l.88.1v2.8H168v-.9h-4l-.08,1h-2.79l-.11,1h-1.83l-.05.94h-1.2v1.14l-1,.09v1.82l-.86.09v1.89h5.92l.07,1h3l.08,1.21h.9l0,.93h.9v5.93h-3.12v-4l-1-.11v-.91H161v-.91h-4l-.09,1h-3.74l-.11,1H151l0,.94H149V65l-1,.1V66.2l-.93,0v1h-1.15l-.08,1H145l-.11,1H144l-.05.94h-1V71ZM65,10.1H76l.1,1h1.83l0,.86h1v-.86l1-.11V10h1.18v-1H82l.09-1H83V6h.93V5.07H71V6H67s-.06,0-.13.11V7.18H64v1H61.92l-.08,1H60l-.11,1H58.07l0,.9-1,0v1H54.88v1.15l-.93,0v1H52.08l-.08,1h-.87l-.11,1H49.91l0,.94h-1v1.14l-1,.09v.89l-.93,0v.91l-1,.05v1.93h-.89l-.11,1H43.87V25.2h-1v1.86l-1,.09v3.07h-.86v1.93h8.8l.06.91h2.17V31.22h2.82l0,.93h1V34h2.18v-.86l1-.11v-.87L60,32.1V30.18h.9L61,29h.9l0-.93h1.16l0-.91,1-.09v-.86l1-.11V25.2l.89-.05.07-1h.88L67,23h.9l0-.93h1.16l0-.91,1-.09v-.91H72V18.24l1-.06V17h.89L74,16H76V14.12H73.91l0-.89H65.93v.91H64v.93l-.94,0,0,1H61l-.1,1H60v1.17H59l-.05.91-1,.08v1.83l-1,.11V22H55V18.18h.94V16h1.17v-.93H58l0-.91,1-.08v-.87l1-.11V12h1.9V11H65ZM192.88,23v1.21H192v.93l-.91.05-.08,1h-.87l-.11,1h-.87l-.05.93h-1.15l0,.91-1,.09v1.1l-1,.11v1.83l-.86,0v4.08H186v1.94h1.87l0,.87h6l.06-.94H197v-1H199V36.2h2.13V35l.91,0,.09-1H203l.11-1h1.83l.06-.94h1V31.2l1.21-.07v-.92h.93V29L209,29l.08-1h1.83l.11-1h.88l0-.94h1.2v-.9l1-.09v-.86l1-.11V23l.89-.05.07-1h.87l.11-1h.88l0-.93h1.14V18.18h-2.16V17H206.07c-.06,0-.12.08-.23.15v1.06H202v1h-2.11l-.08,1H198l-.11,1h-1.83l0,.94h-1V23ZM60,76.06v-1h.93v-1h2.12l.07-1H64l.11-1H65V71h.92l0-.91L67,70v-.86l1-.11v-.91h2.14v-1H71l.1-1H72V65h.93l0-.92,1-.07v-.88l1.21-.08v-.9l.86,0v-.92l-.87,0-.09-1H73l-.08-1.12h-9.8v1.17H60l-.05,1H57.05v.93c-.74,0-1.44,0-2.17,0v1H53v1H51.12l-.09,1H49.88v1.17H49l-.05.94-1,0v.89l-1,.11v.88l-.93,0V70l-.91,0-.08,1H43.92l-.08,1.21H43l-.05.93H42v6l1,.08v.87l1,.11v.87h8.14v-1h1.86l.09-1h1.82l.11-1H57.1V77H59v-.93Zm55.92-61.93v1h2.13v1H120l0,.91h.9l.1-1h.9v-.93h1.17l.06-1H125v-.89l1-.11V12h1.89V11h1.15l.08-1H131l.11-1h1.84l0-.93H136l.06-1H138V5.94h3s.06,0,0,0V5c-1.55,0-3.07,0-4.58,0s-3,.07-4.54,0V4.08C126.83,3.93,119,4,118,4.2V5h-5V6h-3.08l-.06,1.21H108l-.11,1H107v1.89h-.91V13.2h3.84v.93ZM213,6V7.18h-2.13v.93l-.91.05-.08,1h-.87l-.11,1h-.87v3.1h1v.86c.07,0,.1.07.14.07h8.52a.19.19,0,0,1,.1,0,1.49,1.49,0,0,1,.13.13v.8h2.13v1h1.87L222,17h.87l.11-1h.88l0-.94h2.16v-.9l1-.1v-.88l.93,0V12h1.87l.08-1H232l.11-1h1.83l.06-.94h1.92v-1h2.17V7.17H240V6h1.85V5h-11.9l-.1-.88H222l-.05.94h-6V6ZM97.86,47.05H73l-.08,1.21H70.06l0,.93H67.91l0,.91-1,.08v.87l-1,.11V52l-.86,0v3.07l.87.05.09,1h7.82l.11,1h3l0,.93h.91L78,59h1.93v-.87L81.13,58v-.92H83v-1h.9l.09-1h1.87V54.2h1.22V53H89V52H91v-.93H93.1v-1H95l.08-1h2.81Zm-49.94-8,.11-1h.87L49,37.2l.9-.06V35.07H42v1.1l1,.11v1.86h.93v1h1.16l.06.91H47l.09-.93Zm38,0h6V37.14H90l-.08-.9H84v1h.87l.09,1h.9ZM202.05,12h-1v2.13H199V15h3.12v-.91h1.47l1.33,0v-4H203v1h-.94ZM241.88,17H245l.11-.92h.78s.06-.06.09-.09V12H245V13.2h-1v.9l-1,.09v.87l-1.21.08V16l-.93,0V17L240,17v1.14h1.86ZM57.11,57.09c.58,0,1.06,0,1.54,0s.37-.18.36-.44,0-.3,0-.54h2.85v-5h-1V52l-1,.09V53l-1,.1v2.08l-.9.05,0,1h-.91Zm42.94-43.87H97.88v.93H97V15h2.16v-.91h1.95c.62,0,1.24,0,1.81,0V11H101v1h-.94Zm37,53H138l0-1.11H137Zm-75.1-17v.88h1.12v-.88Zm3.12-11v1l.88,0v-.91Zm-1,7.92v1L65,47v-.9Z"/></g></g></g></svg>